<mxfile host="app.diagrams.net" modified="2023-06-07T14:16:37.291Z" agent="Mozilla/5.0 (Windows NT 10.0; Win64; x64; rv:109.0) Gecko/20100101 Firefox/112.0" version="21.3.7" etag="WIPXsAoHperUut5B5IeA" type="github">
  <diagram name="PÃ¡gina-1" id="XvS91QaNDRL9XMEobmnc">
    <mxGraphModel>
      <root>
        <mxCell id="0" />
        <mxCell id="1" parent="0" />
      </root>
    </mxGraphModel>
  </diagram>
</mxfile>
